<svg version="1.1" id="Layer_1" xmlns:x="ns_extend;" xmlns:i="ns_ai;" xmlns:graph="ns_graphs;" xmlns="http://www.w3.org/2000/svg" xmlns:xlink="http://www.w3.org/1999/xlink" x="0px" y="0px" viewBox="0 0 121.7 45" style="enable-background:new 0 0 121.7 45;" xml:space="preserve">
 <style type="text/css">
  .st0{fill-rule:evenodd;clip-rule:evenodd;fill:#FDD103;}
 </style>
 <metadata>
  <sfw xmlns="ns_sfw;">
   <slices>
   </slices>
   <sliceSourceBounds bottomLeftOrigin="true" height="45" width="121.7" x="144.2" y="-207.4">
   </sliceSourceBounds>
  </sfw>
 </metadata>
 <g>
  <path d="M83.9,30.3V27H69.7v-2.8h13.5v-3.5H69.7V18h13.5v-3.5H69.7v-2.8h14.2V8.4h-4.5V5.7h-3.6L75,8.4H60.4l-0.8-2.7H56v2.7h-4.5
		v3.3h14.2v2.8H52.2V18h13.5v2.8H52.2v3.5h13.5V27H51.5v3.3h13c-3.1,3.5-8.5,5.2-13,5.2v3.6c4.2,0,8.1-1,11.4-2.9
		c2-1.1,3.6-2.6,4.8-4.2c1.2,1.6,2.9,3.1,4.8,4.2c3.2,1.9,7.2,2.9,11.4,2.9v-3.6c-4.4,0-9.9-1.7-13-5.2H83.9z M96.8,32.9h4.3
		c1.4-2.8,3.6-8.2,4.4-14.5h3.9v7.2c0,2.5-0.3,5-0.7,7.3h3.8c0.5-2.4,0.7-4.8,0.7-7.3v-7.2h2.5V15h-2.5v-3h-3.8v3H95.5v3.4h6.1
		C100.6,25.5,97.6,31.4,96.8,32.9 M89.4,6.2v32.9h28.5c2.2,0,3.9-1.8,3.9-3.9V6.2H89.4z M118.2,34.7c0,0.5-0.4,0.9-0.9,0.9H92.9V9.8
		h25.3V34.7z">
  </path>
  <path class="st0" d="M13,0h19c4.5,0,6.1,0.5,7.8,1.4c1.7,0.9,2.9,2.2,3.8,3.8C44.5,6.8,45,8.5,45,13v19c0,4.5-0.5,6.1-1.4,7.8
		c-0.9,1.7-2.2,2.9-3.8,3.8C38.2,44.5,36.5,45,32,45H13c-4.5,0-6.2-0.5-7.8-1.4c-1.6-0.9-2.9-2.2-3.8-3.8C0.5,38.2,0,36.5,0,32V13
		c0-4.5,0.5-6.2,1.4-7.8c0.9-1.6,2.2-2.9,3.8-3.8C6.8,0.5,8.5,0,13,0">
  </path>
  <path d="M21.1,26.4v-1.6h-7v-1.4h6.7v-1.7h-6.7v-1.4h6.7v-1.7h-6.7v-1.4h7v-1.6h-2.2v-1.4h-1.8l-0.4,1.4H9.5l-0.4-1.4H7.3v1.4H5
		v1.6h7v1.4H5.4v1.7h6.7v1.4H5.4v1.7h6.7v1.4H5v1.6h6.4C10,28.2,7.3,29,5,29v1.8c2.1,0,4-0.5,5.7-1.5c1-0.6,1.8-1.3,2.4-2.1
		c0.6,0.8,1.4,1.5,2.4,2.1c1.6,0.9,3.6,1.5,5.7,1.5V29c-2.2,0-4.9-0.8-6.4-2.6H21.1z M27.6,27.7h2.1c0.7-1.4,1.8-4.1,2.2-7.2h2v3.6
		c0,1.2-0.1,2.5-0.4,3.6h1.9c0.2-1.2,0.4-2.4,0.4-3.6v-3.6H37v-1.7h-1.3v-1.5h-1.9v1.5h-6.9v1.7h3C29.4,24,27.9,27,27.6,27.7
		 M23.9,14.5v16.3H38c1.1,0,2-0.9,2-2V14.5H23.9z M38.2,28.6c0,0.2-0.2,0.4-0.4,0.4H25.6V16.2h12.6V28.6z">
  </path>
 </g>
</svg>